<svg width="28" height="28" viewBox="0 0 28 28" fill="none" xmlns="http://www.w3.org/2000/svg">
<path d="M22.1667 7H5.83333C4.54467 7 3.5 8.04467 3.5 9.33333V22.1667C3.5 23.4553 4.54467 24.5 5.83333 24.5H22.1667C23.4553 24.5 24.5 23.4553 24.5 22.1667V9.33333C24.5 8.04467 23.4553 7 22.1667 7Z" stroke="url(#paint0_linear_0_19)"/>
<path d="M3.5 11.6667C3.5 9.46633 3.5 8.36733 4.18367 7.68367C4.86733 7 5.96633 7 8.16667 7H19.8333C22.0337 7 23.1327 7 23.8163 7.68367C24.5 8.36733 24.5 9.46633 24.5 11.6667H3.5Z" fill="url(#paint1_linear_0_19)"/>
<path d="M8.16406 3.5V7M19.8307 3.5V7" stroke="url(#paint2_linear_0_19)" stroke-linecap="round"/>
<defs>
<linearGradient id="paint0_linear_0_19" x1="14" y1="7" x2="14" y2="24.5" gradientUnits="userSpaceOnUse">
<stop stop-color="white"/>
<stop offset="1" stop-color="#9B7BFF"/>
</linearGradient>
<linearGradient id="paint1_linear_0_19" x1="14" y1="7" x2="14" y2="11.6667" gradientUnits="userSpaceOnUse">
<stop stop-color="white"/>
<stop offset="1" stop-color="#9B7BFF"/>
</linearGradient>
<linearGradient id="paint2_linear_0_19" x1="13.9974" y1="3.5" x2="13.9974" y2="7" gradientUnits="userSpaceOnUse">
<stop stop-color="white"/>
<stop offset="1" stop-color="#9B7BFF"/>
</linearGradient>
</defs>
</svg>
