<svg
  xmlns="http://www.w3.org/2000/svg"
  viewBox="0 0 44 52"
  width="44"
  height="52"
  fill="none"
>
  <defs>
    <linearGradient id="spark" x1="22" y1="0" x2="22" y2="52" gradientUnits="userSpaceOnUse">
      <stop stop-color="#FFFDF4" />
      <stop offset="0.42" stop-color="#FFE39B" />
      <stop offset="1" stop-color="#C98F4E" />
    </linearGradient>
    <filter id="sparkGlow" x="-60%" y="-60%" width="220%" height="220%">
      <feGaussianBlur stdDeviation="3" />
    </filter>
  </defs>
  <path
    d="M22 0C25 16 31 22 44 26C31 30 25 36 22 52C19 36 13 30 0 26C13 22 19 16 22 0Z"
    fill="#FFCF7A"
    opacity="0.5"
    filter="url(#sparkGlow)"
  />
  <path
    d="M22 0C25 16 31 22 44 26C31 30 25 36 22 52C19 36 13 30 0 26C13 22 19 16 22 0Z"
    fill="url(#spark)"
  />
</svg>
